<?xml version="1.0" encoding="utf-8"?>
<!-- Generator: Adobe Illustrator 16.0.0, SVG Export Plug-In . SVG Version: 6.00 Build 0)  -->
<!DOCTYPE svg PUBLIC "-//W3C//DTD SVG 1.1//EN" "http://www.w3.org/Graphics/SVG/1.1/DTD/svg11.dtd">
<svg version="1.1" id="Layer_1" xmlns="http://www.w3.org/2000/svg" xmlns:xlink="http://www.w3.org/1999/xlink" x="0px" y="0px"
	 width="1647.301px" height="556px" viewBox="-47.5 -203.5 1647.301 556" enable-background="new -47.5 -203.5 1647.301 556"
	 xml:space="preserve">
<g>
	<path fill="#5B1371" d="M1565.328,294.56c-6.201,23.312-30.355,42.625-52.266,42.876c-492.833,5.46-985.667-3.936-1478.5-28.188
		c-21.921-1.115-45.379-18.955-50.877-39.601c-34.33-130.098-34.33-260.197,0-390.295c5.499-20.646,28.957-38.485,50.877-39.601
		c492.833-24.252,985.667-33.647,1478.5-28.188c21.91,0.251,46.065,19.565,52.266,42.876
		C1604.041,1.147,1604.041,147.854,1565.328,294.56z"/>
	<g>
		<path fill="#FFFFFF" d="M252.563-132.359c-0.1,0-0.1,0-0.2,0c0,0,0,0-0.1,0c-0.101,0-0.2,0-0.2,0c-114.7,0.3-207.5,93.3-207.5,208
			s92.8,207.7,207.5,208c0.1,0,0.2,0,0.2,0h0.1c0.101,0,0.101,0,0.2,0c114.9,0,208-93.1,208-208
			C460.563-39.259,367.463-132.359,252.563-132.359z M252.563,267.041c-0.1,0-0.1,0-0.2,0c0,0,0,0-0.1,0c-0.101,0-0.2,0-0.2,0
			c-105.4-0.301-190.9-85.9-190.9-191.4s85.4-191.1,190.9-191.3c0.1,0,0.1,0,0.2,0h0.1c0.101,0,0.101,0,0.2,0
			c105.7,0,191.4,85.7,191.4,191.4C443.963,181.341,358.263,267.041,252.563,267.041z"/>
		<path fill="#FFFFFF" d="M318.862-8.56c-18.7,4.5-38,7.2-57.899,7.8v68.1h67.6C327.963,39.241,324.463,13.741,318.862-8.56z"/>
		<path fill="#FFFFFF" d="M260.862-97.859v81.9c18.5-0.6,36.5-3,53.8-7.2C301.563-64.56,281.162-91.759,260.862-97.859z"/>
		<path fill="#FFFFFF" d="M189.963-23.259c17.5,4.2,35.6,6.7,54.199,7.3v-82.1C223.862-92.159,203.162-64.959,189.963-23.259z"/>
		<path fill="#FFFFFF" d="M377.162-46.959c-22.6-23-51.5-39.8-83.899-47.5c14.8,15.3,27.2,38.7,36.1,67.3
			C346.063-32.259,362.063-38.859,377.162-46.959z"/>
		<path fill="#FFFFFF" d="M343.862,67.341h83.3c-1.8-38.8-16.3-74.4-39.5-102.6c-17.1,9.4-35.199,17.1-54.1,22.8
			C339.662,11.541,343.263,38.641,343.862,67.341z"/>
		<path fill="#FFFFFF" d="M176.063,67.341h68.2v-68.1c-20.101-0.6-39.601-3.3-58.4-7.9
			C180.162,13.641,176.662,39.241,176.063,67.341z"/>
		<path fill="#FFFFFF" d="M328.563,83.94h-67.7v68c19.9,0.601,39.3,3.2,58,7.8C324.463,137.541,327.963,111.94,328.563,83.94z"/>
		<path fill="#FFFFFF" d="M185.862,159.841c18.8-4.601,38.3-7.3,58.4-7.9v-68h-68.2
			C176.662,112.041,180.162,137.641,185.862,159.841z"/>
		<path fill="#FFFFFF" d="M244.263,249.24v-82.1c-18.601,0.6-36.8,3.1-54.3,7.3C203.162,216.141,223.862,243.44,244.263,249.24z"/>
		<path fill="#FFFFFF" d="M293.263,245.74c32.399-7.8,61.3-24.5,84-47.6c-15.101-8.1-31.101-14.7-47.8-19.8
			C320.563,207.041,308.063,230.341,293.263,245.74z"/>
		<path fill="#FFFFFF" d="M211.263-94.259c-32.101,7.8-60.8,24.5-83.3,47.4c15,8,30.8,14.6,47.3,19.6
			C184.162-55.759,196.563-78.959,211.263-94.259z"/>
		<path fill="#FFFFFF" d="M333.563,163.74c19,5.7,37.1,13.4,54.2,22.801c23.2-28.2,37.7-63.801,39.5-102.601h-83.3
			C343.263,112.641,339.662,139.641,333.563,163.74z"/>
		<path fill="#FFFFFF" d="M260.862,167.141v82c20.3-6.1,40.7-33.3,53.8-74.8C297.362,170.141,279.362,167.74,260.862,167.141z"/>
		<path fill="#FFFFFF" d="M171.162-12.56c-18.8-5.7-36.8-13.3-53.699-22.7c-23.2,28.2-37.7,63.8-39.5,102.6h82.899
			C161.362,38.541,165.063,11.44,171.162-12.56z"/>
		<path fill="#FFFFFF" d="M160.763,83.94h-82.9c1.8,38.8,16.3,74.4,39.5,102.601c16.9-9.301,34.9-17,53.7-22.7
			C165.063,139.841,161.362,112.74,160.763,83.94z"/>
		<path fill="#FFFFFF" d="M127.862,198.141c22.5,22.9,51.2,39.6,83.4,47.4c-14.7-15.301-27.101-38.601-36-67.101
			C158.763,183.541,142.862,190.141,127.862,198.141z"/>
	</g>
	<g>
		<path fill="#FFFFFF" d="M541.469,9.529c10.496,0,19.316,0.949,26.463,2.846c7.145,1.897,12.914,4.538,17.311,7.92
			c4.394,3.384,7.555,7.431,9.484,12.141c1.928,4.711,2.893,9.881,2.893,15.508c0,5.312-0.886,10.497-2.655,15.556
			c-1.771,5.06-4.854,9.579-9.248,13.563c-4.396,3.984-10.276,7.178-17.642,9.58c-7.367,2.404-16.646,3.604-27.838,3.604h-13.089
			v49.511h19.918v7.588h-57.384v-7.588h18.97V17.117h-18.97V9.529H541.469z M527.147,82.658h11.666
			c7.271,0,13.389-0.553,18.354-1.66c4.963-1.105,8.93-2.987,11.903-5.644c2.971-2.655,5.105-6.18,6.402-10.575
			c1.295-4.395,1.944-9.879,1.944-16.456c0-5.438-0.491-10.116-1.471-14.038c-0.98-3.92-2.83-7.161-5.549-9.722
			c-2.719-2.562-6.497-4.441-11.334-5.644c-4.837-1.2-11.082-1.803-18.732-1.803h-13.184V82.658z"/>
		<path fill="#FFFFFF" d="M686.509,76.777l-27.412,71.99h-7.303L604.56,17.117h-18.78V9.529h55.297v7.588h-16.884l36.612,101.678
			h0.379l20.962-54.633l-16.883-47.045h-15.936V9.529h55.297v7.588h-19.729l36.612,101.678h0.379L760.87,17.117h-18.971V9.529
			h45.243v7.588H770.07L719.8,148.768h-7.303l-25.609-71.99H686.509z"/>
		<path fill="#FFFFFF" d="M791.521,139.757v7.588h-46.191v-7.588h18.021l49.321-131.65h7.493l46.286,131.65h18.779v7.588h-58.332
			v-7.588h19.729l-14.227-40.5h-44.769l-15.081,40.5H791.521z M810.585,38.079l-20.013,53.494h39.172l-18.779-53.494H810.585z"/>
	</g>
	<g opacity="0.8">
		<path fill="#FFFFFF" d="M899.982,134.123h21.646v12.826h-74.559v-12.826h24.051V23.169h-24.051V10.341h52.913V33.59h0.641
			c4.379-8.87,10.26-15.686,17.637-20.444c7.374-4.754,16.889-7.134,28.543-7.134c14.639,0,25.543,3.768,32.705,11.302
			c7.159,7.538,10.743,18.307,10.743,32.309v84.5h23.25v12.826h-73.758v-12.826h21.647V45.134c0-8.442-1.979-14.669-5.934-18.679
			c-3.957-4.009-9.516-6.014-16.673-6.014c-5.455,0-10.53,1.15-15.233,3.448c-4.706,2.299-8.792,5.853-12.269,10.662
			c-3.472,4.809-6.225,10.958-8.255,18.439c-2.03,7.483-3.045,16.355-3.045,26.617V134.123z"/>
		<path fill="#FFFFFF" d="M1134.743,103.497c-3.424,15.501-10.05,27.368-19.884,35.597c-9.838,8.229-22.609,12.346-38.319,12.346
			c-10.797,0-20.421-1.899-28.86-5.691c-8.445-3.794-15.611-8.954-21.487-15.474c-5.882-6.519-10.372-14.136-13.47-22.849
			c-3.101-8.711-4.646-17.982-4.646-27.818c0-10.046,1.601-19.562,4.805-28.542c3.21-8.978,7.778-16.779,13.715-23.408
			c5.927-6.627,13.038-11.891,21.323-15.794c8.282-3.902,17.557-5.853,27.815-5.853c9.404,0,17.853,1.658,25.334,4.97
			c7.484,3.315,13.843,7.937,19.082,13.87c5.235,5.932,9.271,13.015,12.105,21.244c2.83,8.233,4.353,17.265,4.568,27.097h-96.683
			c-0.107,1.819-0.16,3.021-0.16,3.609s0,0.936,0,1.041c0,12.615,0.934,22.877,2.806,30.786c1.867,7.913,4.491,14.084,7.854,18.519
			c3.369,4.438,7.378,7.455,12.029,9.06c4.646,1.602,9.803,2.405,15.469,2.405c5.239,0,10.182-0.695,14.832-2.084
			c4.65-1.388,8.845-3.607,12.587-6.655c3.739-3.046,7.025-7,9.859-11.864c2.836-4.863,5.106-10.716,6.819-17.558
			c2.133,0.215,4.271,0.589,6.41,1.123C1130.785,102.109,1132.816,102.752,1134.743,103.497z M1104.438,60.687
			c-0.318-8.87-1.256-16.059-2.806-21.566c-1.549-5.504-3.608-9.805-6.173-12.906c-2.563-3.099-5.588-5.211-9.06-6.334
			c-3.477-1.121-7.296-1.682-11.465-1.682c-4.383,0-8.474,0.641-12.263,1.923c-3.795,1.282-7.193,3.527-10.184,6.734
			c-2.993,3.207-5.48,7.535-7.455,12.987c-1.978,5.453-3.342,12.402-4.09,20.844H1104.438z"/>
		<path fill="#FFFFFF" d="M1291.419,149.194l-39.443-97.164l-39.761,97.164h-13.47l-52.271-126.025h-23.893V10.341h78.246v12.828
			h-22.93l35.916,88.986h0.641l41.048-102.617h9.781l41.208,102.617h0.641l35.275-88.986h-22.447V10.341h59.803v12.828h-23.405
			l-51.312,126.025H1291.419z"/>
		<path fill="#FFFFFF" d="M1453.867,55.717c-0.534-6.948-1.682-12.826-3.445-17.638c-1.765-4.81-4.144-8.709-7.137-11.706
			c-2.994-2.989-6.6-5.155-10.819-6.493c-4.224-1.333-9.06-2.004-14.515-2.004c-4.169,0-8.019,0.402-11.542,1.204
			c-3.526,0.8-6.572,2.033-9.142,3.687c-2.563,1.658-4.567,3.824-6.013,6.493c-1.441,2.674-2.164,5.881-2.164,9.621
			c0,3.742,0.667,6.814,2.004,9.219c1.334,2.405,3.528,4.545,6.574,6.414c3.05,1.871,6.946,3.663,11.704,5.371
			c4.758,1.712,10.609,3.742,17.561,6.093c5.553,1.923,11.06,3.956,16.515,6.094c5.45,2.14,10.342,4.81,14.669,8.016
			c4.328,3.207,7.829,7.083,10.501,11.624c2.671,4.545,4.009,10.077,4.009,16.596c0,7.375-1.656,13.79-4.969,19.24
			c-3.316,5.452-7.695,9.941-13.15,13.468c-5.45,3.528-11.649,6.146-18.596,7.858c-6.952,1.708-14.059,2.565-21.329,2.565
			c-3.845,0-7.937-0.217-12.265-0.643c-4.327-0.428-8.604-1.015-12.828-1.762c-4.225-0.75-8.229-1.633-12.023-2.648
			c-3.795-1.015-7.136-2.056-10.023-3.125l-1.122-46.498h11.064c0.532,8.124,1.686,14.938,3.449,20.442
			c1.765,5.506,4.221,9.916,7.374,13.228c3.152,3.314,6.999,5.667,11.546,7.055c4.542,1.392,9.859,2.084,15.95,2.084
			c4.596,0,8.845-0.4,12.747-1.202c3.901-0.802,7.3-2.084,10.182-3.848c2.888-1.764,5.158-4.089,6.819-6.975
			c1.655-2.884,2.482-6.358,2.482-10.421c0-3.527-0.643-6.438-1.924-8.739c-1.282-2.297-3.312-4.354-6.092-6.173
			c-2.783-1.815-6.361-3.528-10.74-5.13c-4.389-1.604-9.624-3.472-15.716-5.611c-6.096-2.138-11.946-4.356-17.56-6.655
			c-5.609-2.297-10.556-5.076-14.828-8.337c-4.28-3.26-7.701-7.188-10.264-11.785c-2.564-4.594-3.846-10.208-3.846-16.834
			c0-7.271,1.493-13.549,4.486-18.84c2.99-5.294,6.974-9.647,11.947-13.069c4.967-3.42,10.685-5.932,17.154-7.537
			c6.466-1.603,13.172-2.405,20.124-2.405c3.527,0,7.214,0.187,11.064,0.561c3.845,0.376,7.666,0.882,11.464,1.523
			c3.795,0.641,7.429,1.363,10.901,2.165c3.471,0.803,6.655,1.577,9.541,2.324l1.122,43.132H1453.867z"/>
	</g>
</g>
</svg>
